# Blender 5.2.0 LTS
# www.blender.org
mtllib medvtol_prop.mtl
o medvtol_prop
v 12.199994 0.099998 0.699999
v 12.199994 0.399998 0.399999
v 4.066662 0.399998 0.399999
v -4.066673 0.399998 0.399999
v -12.200006 0.399998 0.399999
v -12.200006 0.099998 0.699999
v -4.066673 0.099998 0.699999
v 4.066662 0.099998 0.699999
v 12.329404 0.099998 0.682962
v 12.449994 0.099998 0.633012
v 12.553547 0.099998 0.553552
v 12.633007 0.099998 0.449999
v 12.682958 0.099998 0.329409
v 12.699994 0.099998 0.199999
v 12.399994 0.399998 0.199999
v 12.393179 0.399998 0.251763
v 12.373199 0.399998 0.299999
v 12.341415 0.399998 0.341420
v 12.299994 0.399998 0.373204
v 12.251759 0.399998 0.393184
v 12.699994 0.099998 -0.200001
v 12.399994 0.399998 -0.200001
v 12.682958 0.099998 -0.329411
v 12.633007 0.099998 -0.450001
v 12.553547 0.099998 -0.553554
v 12.449994 0.099998 -0.633014
v 12.329404 0.099998 -0.682964
v 12.199994 0.099998 -0.700001
v 12.199994 0.399998 -0.400001
v 12.251759 0.399998 -0.393186
v 12.299994 0.399998 -0.373206
v 12.341415 0.399998 -0.341422
v 12.373199 0.399998 -0.300001
v 12.393179 0.399998 -0.251765
v -12.200006 0.099998 -0.700001
v -12.200006 0.399998 -0.400001
v -4.066673 0.399998 -0.400001
v 4.066662 0.399998 -0.400001
v 4.066662 0.099998 -0.700001
v -4.066673 0.099998 -0.700001
v -12.329416 0.099998 -0.682964
v -12.450006 0.099998 -0.633014
v -12.553560 0.099998 -0.553554
v -12.633020 0.099998 -0.450001
v -12.682970 0.099998 -0.329411
v -12.700006 0.099998 -0.200001
v -12.400007 0.399998 -0.200001
v -12.393190 0.399998 -0.251765
v -12.373209 0.399998 -0.300001
v -12.341425 0.399998 -0.341422
v -12.300005 0.399998 -0.373206
v -12.251768 0.399998 -0.393186
v -12.700006 0.099998 0.199999
v -12.400007 0.399998 0.199999
v -12.682970 0.099998 0.329409
v -12.633020 0.099998 0.449999
v -12.553560 0.099998 0.553552
v -12.450006 0.099998 0.633012
v -12.329416 0.099998 0.682962
v -12.251768 0.399998 0.393184
v -12.300005 0.399998 0.373204
v -12.341425 0.399998 0.341420
v -12.373209 0.399998 0.299999
v -12.393190 0.399998 0.251763
v 12.699994 -0.100002 -0.200001
v 12.682958 -0.100002 -0.329411
v 12.633007 -0.100002 -0.450001
v 12.553547 -0.100002 -0.553554
v 12.449994 -0.100002 -0.633014
v 12.329404 -0.100002 -0.682964
v 12.199994 -0.100002 -0.700001
v 12.699994 -0.100002 0.199999
v 12.199994 -0.100002 0.699999
v 12.329404 -0.100002 0.682962
v 12.449994 -0.100002 0.633012
v 12.553547 -0.100002 0.553552
v 12.633007 -0.100002 0.449999
v 12.682958 -0.100002 0.329409
v -12.200006 -0.100002 0.699999
v -4.066673 -0.100002 0.699999
v 4.066662 -0.100002 0.699999
v 12.199994 -0.400002 0.399999
v -12.200006 -0.400002 0.399999
v -4.066673 -0.400002 0.399999
v 4.066662 -0.400002 0.399999
v 12.399994 -0.400002 0.199999
v 12.251759 -0.400002 0.393184
v 12.299994 -0.400002 0.373204
v 12.341415 -0.400002 0.341420
v 12.373199 -0.400002 0.299999
v 12.393179 -0.400002 0.251763
v 12.399994 -0.400002 -0.200001
v 12.199994 -0.400002 -0.400001
v 12.393179 -0.400002 -0.251765
v 12.373199 -0.400002 -0.300001
v 12.341415 -0.400002 -0.341422
v 12.299994 -0.400002 -0.373206
v 12.251759 -0.400002 -0.393186
v -12.200006 -0.400002 -0.400001
v -12.200006 -0.100002 -0.700001
v -4.066673 -0.100002 -0.700001
v 4.066662 -0.100002 -0.700001
v 4.066662 -0.400002 -0.400001
v -4.066673 -0.400002 -0.400001
v -12.400007 -0.400002 -0.200001
v -12.700006 -0.100002 -0.200001
v -12.682970 -0.100002 -0.329411
v -12.633020 -0.100002 -0.450001
v -12.553560 -0.100002 -0.553554
v -12.450006 -0.100002 -0.633014
v -12.329416 -0.100002 -0.682964
v -12.251768 -0.400002 -0.393186
v -12.300005 -0.400002 -0.373206
v -12.341425 -0.400002 -0.341422
v -12.373209 -0.400002 -0.300001
v -12.393190 -0.400002 -0.251765
v -12.400007 -0.400002 0.199999
v -12.700006 -0.100002 0.199999
v -12.329416 -0.100002 0.682962
v -12.450006 -0.100002 0.633012
v -12.553560 -0.100002 0.553552
v -12.633020 -0.100002 0.449999
v -12.682970 -0.100002 0.329409
v -12.393190 -0.400002 0.251763
v -12.373209 -0.400002 0.299999
v -12.341425 -0.400002 0.341420
v -12.300005 -0.400002 0.373204
v -12.251768 -0.400002 0.393184
vn -0.0000 0.7071 0.7071
vn 0.1830 0.7071 0.6830
vn 0.3536 0.7071 0.6124
vn 0.5000 0.7071 0.5000
vn 0.6124 0.7071 0.3536
vn 0.6830 0.7071 0.1830
vn 0.7071 0.7071 -0.0000
vn 0.6830 0.7071 -0.1830
vn 0.6124 0.7071 -0.3536
vn 0.5000 0.7071 -0.5000
vn 0.3536 0.7071 -0.6124
vn 0.1830 0.7071 -0.6830
vn -0.0000 0.7071 -0.7071
vn -0.1830 0.7071 -0.6830
vn -0.3536 0.7071 -0.6124
vn -0.5000 0.7071 -0.5000
vn -0.6124 0.7071 -0.3536
vn -0.6124 0.7071 -0.3535
vn -0.6830 0.7071 -0.1830
vn -0.7071 0.7071 -0.0000
vn -0.6830 0.7071 0.1831
vn -0.6830 0.7071 0.1830
vn -0.6124 0.7071 0.3536
vn -0.6124 0.7071 0.3535
vn -0.5000 0.7071 0.5000
vn -0.3536 0.7071 0.6123
vn -0.3536 0.7071 0.6124
vn -0.1830 0.7071 0.6830
vn -0.0000 -0.0000 -1.0000
vn 0.2588 -0.0000 -0.9659
vn 0.5000 -0.0000 -0.8660
vn 0.7071 -0.0000 -0.7071
vn 0.8660 -0.0000 -0.5000
vn 0.9659 -0.0000 -0.2588
vn 1.0000 -0.0000 -0.0000
vn 0.9659 -0.0000 0.2588
vn 0.8660 -0.0000 0.5000
vn 0.7071 -0.0000 0.7071
vn 0.5000 -0.0000 0.8660
vn 0.2588 -0.0000 0.9659
vn -0.0000 -0.0000 1.0000
vn -0.0000 1.0000 -0.0000
vn -0.0000 -0.7071 0.7071
vn 0.7071 -0.7071 -0.0000
vn 0.6830 -0.7071 0.1830
vn 0.6124 -0.7071 0.3536
vn 0.5000 -0.7071 0.5000
vn 0.3536 -0.7071 0.6124
vn 0.1830 -0.7071 0.6830
vn -0.0000 -0.7071 -0.7071
vn 0.1830 -0.7071 -0.6830
vn 0.3536 -0.7071 -0.6124
vn 0.5000 -0.7071 -0.5000
vn 0.6124 -0.7071 -0.3536
vn 0.6830 -0.7071 -0.1830
vn -0.7071 -0.7071 -0.0000
vn -0.6830 -0.7071 -0.1831
vn -0.6830 -0.7071 -0.1830
vn -0.6124 -0.7071 -0.3536
vn -0.6124 -0.7071 -0.3535
vn -0.5000 -0.7071 -0.5000
vn -0.3536 -0.7071 -0.6123
vn -0.3536 -0.7071 -0.6124
vn -0.1830 -0.7071 -0.6830
vn -0.1830 -0.7071 0.6830
vn -0.3536 -0.7071 0.6124
vn -0.5000 -0.7071 0.5000
vn -0.6124 -0.7071 0.3536
vn -0.6124 -0.7071 0.3535
vn -0.6830 -0.7071 0.1830
vn -1.0000 -0.0000 -0.0000
vn -0.9659 -0.0000 -0.2588
vn -0.8660 -0.0000 -0.5000
vn -0.7071 -0.0000 -0.7071
vn -0.5000 -0.0000 -0.8660
vn -0.2588 -0.0000 -0.9659
vn -0.2588 -0.0000 0.9659
vn -0.5000 -0.0000 0.8660
vn -0.7071 -0.0000 0.7071
vn -0.8660 -0.0000 0.5000
vn -0.9659 -0.0000 0.2588
vn -0.0000 -1.0000 -0.0000
vt 18.549999 0.212132
vt 10.416667 0.212132
vt 18.549999 -0.212132
vt 10.416667 -0.212132
vt 2.283333 0.212132
vt 2.283333 -0.212132
vt -5.850000 0.212132
vt -5.850000 -0.212132
vt 0.212132 0.274889
vt -0.212132 0.274889
vt 0.212132 0.183260
vt -0.212132 0.183260
vt 0.212132 0.091630
vt -0.212132 0.091630
vt 0.212132 0.000000
vt -0.212132 0.000000
vt 0.212132 -0.091630
vt -0.212132 -0.091630
vt 0.212132 -0.183260
vt -0.212132 -0.183260
vt 0.212132 -0.274889
vt -0.212132 -0.274889
vt 0.212132 0.550000
vt -0.212132 0.550000
vt 0.212132 0.150000
vt -0.212132 0.150000
vt -18.549999 -0.212132
vt -10.416667 -0.212132
vt -18.549999 0.212132
vt -10.416667 0.212132
vt -2.283333 -0.212132
vt -2.283333 0.212132
vt 5.850000 -0.212132
vt 5.850000 0.212132
vt -0.212132 -0.550000
vt 0.212132 -0.550000
vt -0.212132 -0.150000
vt 0.212132 -0.150000
vt -0.300000 0.392699
vt -0.500000 0.392699
vt -0.300000 0.261799
vt -0.500000 0.261799
vt -0.300000 0.130900
vt -0.500000 0.130900
vt -0.300000 0.000000
vt -0.500000 0.000000
vt -0.300000 -0.130900
vt -0.500000 -0.130900
vt -0.300000 -0.261799
vt -0.500000 -0.261799
vt -0.300000 -0.392699
vt -0.500000 -0.392699
vt 0.900000 0.500000
vt 0.500000 0.500000
vt 0.900000 0.300000
vt 0.500000 0.300000
vt 24.900000 0.500000
vt 16.766666 0.500000
vt 24.900000 0.300000
vt 16.766666 0.300000
vt 8.633333 0.500000
vt 8.633333 0.300000
vt -4.066667 -0.400000
vt -12.341421 -0.341421
vt -12.200000 -0.400000
vt -12.300000 -0.373205
vt -12.251764 -0.393185
vt 4.066667 -0.400000
vt -4.066667 0.400000
vt -12.400000 0.200000
vt -12.400000 -0.200000
vt 12.200000 -0.400000
vt 12.341421 -0.341421
vt 12.373205 -0.300000
vt 12.393185 -0.251764
vt 12.251764 -0.393185
vt 12.300000 -0.373205
vt 12.400000 -0.200000
vt 12.400000 0.200000
vt 4.066667 0.400000
vt 12.393185 0.251764
vt 12.373205 0.300000
vt 12.341421 0.341421
vt 12.200000 0.400000
vt 12.300000 0.373205
vt 12.251764 0.393185
vt -12.200000 0.400000
vt -12.341421 0.341421
vt -12.373205 0.300000
vt -12.393185 0.251764
vt -12.251764 0.393185
vt -12.300000 0.373205
vt -12.393185 -0.251764
vt -12.373205 -0.300000
s 1
usemtl Steel_-_Satin.001
f 2/1/1 3/2/1 1/3/1
f 1/3/1 3/2/1 8/4/1
f 8/4/1 3/2/1 4/5/1
f 8/4/1 4/5/1 7/6/1
f 7/6/1 4/5/1 5/7/1
f 7/6/1 5/7/1 6/8/1
f 2/9/1 1/10/1 20/11/2
f 20/11/2 1/10/1 9/12/2
f 20/11/2 9/12/2 19/13/3
f 19/13/3 9/12/2 10/14/3
f 19/13/3 10/14/3 18/15/4
f 18/15/4 10/14/3 11/16/4
f 18/15/4 11/16/4 17/17/5
f 17/17/5 11/16/4 12/18/5
f 17/17/5 12/18/5 16/19/6
f 16/19/6 12/18/5 13/20/6
f 16/19/6 13/20/6 15/21/7
f 15/21/7 13/20/6 14/22/7
f 21/23/7 22/24/7 14/25/7
f 14/25/7 22/24/7 15/26/7
f 22/9/7 21/10/7 34/11/8
f 34/11/8 21/10/7 23/12/8
f 34/11/8 23/12/8 33/13/9
f 33/13/9 23/12/8 24/14/9
f 33/13/9 24/14/9 32/15/10
f 32/15/10 24/14/9 25/16/10
f 32/15/10 25/16/10 31/17/11
f 31/17/11 25/16/10 26/18/11
f 31/17/11 26/18/11 30/19/12
f 30/19/12 26/18/11 27/20/12
f 30/19/12 27/20/12 29/21/13
f 29/21/13 27/20/12 28/22/13
f 36/27/13 37/28/13 35/29/13
f 35/29/13 37/28/13 40/30/13
f 40/30/13 37/28/13 38/31/13
f 40/30/13 38/31/13 39/32/13
f 39/32/13 38/31/13 29/33/13
f 39/32/13 29/33/13 28/34/13
f 36/9/13 35/10/13 52/11/14
f 52/11/14 35/10/13 41/12/14
f 52/11/14 41/12/14 51/13/15
f 51/13/15 41/12/14 42/14/15
f 51/13/15 42/14/15 50/15/16
f 50/15/16 42/14/15 43/16/16
f 50/15/16 43/16/16 49/17/17
f 49/17/17 43/16/16 44/18/18
f 49/17/17 44/18/18 48/19/19
f 48/19/19 44/18/18 45/20/19
f 48/19/19 45/20/19 47/21/20
f 47/21/20 45/20/19 46/22/20
f 53/35/20 54/36/20 46/37/20
f 46/37/20 54/36/20 47/38/20
f 54/9/20 53/10/20 64/11/21
f 64/11/21 53/10/20 55/12/22
f 64/11/21 55/12/22 63/13/23
f 63/13/23 55/12/22 56/14/24
f 63/13/23 56/14/24 62/15/25
f 62/15/25 56/14/24 57/16/25
f 62/15/25 57/16/25 61/17/26
f 61/17/26 57/16/25 58/18/27
f 61/17/26 58/18/27 60/19/28
f 60/19/28 58/18/27 59/20/28
f 60/19/28 59/20/28 5/21/1
f 5/21/1 59/20/28 6/22/1
f 71/39/29 28/40/29 70/41/30
f 70/41/30 28/40/29 27/42/30
f 70/41/30 27/42/30 69/43/31
f 69/43/31 27/42/30 26/44/31
f 69/43/31 26/44/31 68/45/32
f 68/45/32 26/44/31 25/46/32
f 68/45/32 25/46/32 67/47/33
f 67/47/33 25/46/32 24/48/33
f 67/47/33 24/48/33 66/49/34
f 66/49/34 24/48/33 23/50/34
f 66/49/34 23/50/34 65/51/35
f 65/51/35 23/50/34 21/52/35
f 21/53/35 14/54/35 65/55/35
f 65/55/35 14/54/35 72/56/35
f 72/39/35 14/40/35 78/41/36
f 78/41/36 14/40/35 13/42/36
f 78/41/36 13/42/36 77/43/37
f 77/43/37 13/42/36 12/44/37
f 77/43/37 12/44/37 76/45/38
f 76/45/38 12/44/37 11/46/38
f 76/45/38 11/46/38 75/47/39
f 75/47/39 11/46/38 10/48/39
f 75/47/39 10/48/39 74/49/40
f 74/49/40 10/48/39 9/50/40
f 74/49/40 9/50/40 73/51/41
f 73/51/41 9/50/40 1/52/41
f 1/57/41 8/58/41 73/59/41
f 73/59/41 8/58/41 81/60/41
f 81/60/41 8/58/41 7/61/41
f 81/60/41 7/61/41 80/62/41
f 80/62/41 7/61/41 6/54/41
f 80/62/41 6/54/41 79/56/41
f 4/63/42 62/64/42 5/65/42
f 5/65/42 62/64/42 61/66/42
f 5/65/42 61/66/42 60/67/42
f 3/68/42 37/69/42 4/63/42
f 4/63/42 37/69/42 47/70/42
f 4/63/42 47/70/42 54/71/42
f 2/72/42 18/73/42 3/68/42
f 3/68/42 18/73/42 17/74/42
f 3/68/42 17/74/42 16/75/42
f 20/76/42 19/77/42 2/72/42
f 2/72/42 19/77/42 18/73/42
f 16/75/42 15/78/42 3/68/42
f 3/68/42 15/78/42 22/79/42
f 3/68/42 22/79/42 38/80/42
f 38/80/42 22/79/42 34/81/42
f 38/80/42 34/81/42 33/82/42
f 33/82/42 32/83/42 38/80/42
f 38/80/42 32/83/42 29/84/42
f 29/84/42 32/83/42 31/85/42
f 29/84/42 31/85/42 30/86/42
f 38/80/42 37/69/42 3/68/42
f 36/87/42 50/88/42 37/69/42
f 37/69/42 50/88/42 49/89/42
f 37/69/42 49/89/42 48/90/42
f 52/91/42 51/92/42 36/87/42
f 36/87/42 51/92/42 50/88/42
f 48/90/42 47/70/42 37/69/42
f 54/71/42 64/93/42 4/63/42
f 4/63/42 64/93/42 63/94/42
f 4/63/42 63/94/42 62/64/42
f 73/27/43 81/28/43 82/29/43
f 82/29/43 81/28/43 85/30/43
f 85/30/43 81/28/43 80/31/43
f 85/30/43 80/31/43 84/32/43
f 84/32/43 80/31/43 79/33/43
f 84/32/43 79/33/43 83/34/43
f 86/9/44 72/10/44 91/11/45
f 91/11/45 72/10/44 78/12/45
f 91/11/45 78/12/45 90/13/46
f 90/13/46 78/12/45 77/14/46
f 90/13/46 77/14/46 89/15/47
f 89/15/47 77/14/46 76/16/47
f 89/15/47 76/16/47 88/17/48
f 88/17/48 76/16/47 75/18/48
f 88/17/48 75/18/48 87/19/49
f 87/19/49 75/18/48 74/20/49
f 87/19/49 74/20/49 82/21/43
f 82/21/43 74/20/49 73/22/43
f 92/23/44 65/24/44 86/25/44
f 86/25/44 65/24/44 72/26/44
f 93/9/50 71/10/50 98/11/51
f 98/11/51 71/10/50 70/12/51
f 98/11/51 70/12/51 97/13/52
f 97/13/52 70/12/51 69/14/52
f 97/13/52 69/14/52 96/15/53
f 96/15/53 69/14/52 68/16/53
f 96/15/53 68/16/53 95/17/54
f 95/17/54 68/16/53 67/18/54
f 95/17/54 67/18/54 94/19/55
f 94/19/55 67/18/54 66/20/55
f 94/19/55 66/20/55 92/21/44
f 92/21/44 66/20/55 65/22/44
f 100/1/50 101/2/50 99/3/50
f 99/3/50 101/2/50 104/4/50
f 104/4/50 101/2/50 102/5/50
f 104/4/50 102/5/50 103/6/50
f 103/6/50 102/5/50 71/7/50
f 103/6/50 71/7/50 93/8/50
f 105/9/56 106/10/56 116/11/57
f 116/11/57 106/10/56 107/12/58
f 116/11/57 107/12/58 115/13/59
f 115/13/59 107/12/58 108/14/60
f 115/13/59 108/14/60 114/15/61
f 114/15/61 108/14/60 109/16/61
f 114/15/61 109/16/61 113/17/62
f 113/17/62 109/16/61 110/18/63
f 113/17/62 110/18/63 112/19/64
f 112/19/64 110/18/63 111/20/64
f 112/19/64 111/20/64 99/21/50
f 99/21/50 111/20/64 100/22/50
f 117/35/56 118/36/56 105/37/56
f 105/37/56 118/36/56 106/38/56
f 83/9/43 79/10/43 128/11/65
f 128/11/65 79/10/43 119/12/65
f 128/11/65 119/12/65 127/13/66
f 127/13/66 119/12/65 120/14/66
f 127/13/66 120/14/66 126/15/67
f 126/15/67 120/14/66 121/16/67
f 126/15/67 121/16/67 125/17/68
f 125/17/68 121/16/67 122/18/69
f 125/17/68 122/18/69 124/19/70
f 124/19/70 122/18/69 123/20/70
f 124/19/70 123/20/70 117/21/56
f 117/21/56 123/20/70 118/22/56
f 106/39/71 46/40/71 107/41/72
f 107/41/72 46/40/71 45/42/72
f 107/41/72 45/42/72 108/43/73
f 108/43/73 45/42/72 44/44/73
f 108/43/73 44/44/73 109/45/74
f 109/45/74 44/44/73 43/46/74
f 109/45/74 43/46/74 110/47/75
f 110/47/75 43/46/74 42/48/75
f 110/47/75 42/48/75 111/49/76
f 111/49/76 42/48/75 41/50/76
f 111/49/76 41/50/76 100/51/29
f 100/51/29 41/50/76 35/52/29
f 53/53/71 46/54/71 118/55/71
f 118/55/71 46/54/71 106/56/71
f 79/39/41 6/40/41 119/41/77
f 119/41/77 6/40/41 59/42/77
f 119/41/77 59/42/77 120/43/78
f 120/43/78 59/42/77 58/44/78
f 120/43/78 58/44/78 121/45/79
f 121/45/79 58/44/78 57/46/79
f 121/45/79 57/46/79 122/47/80
f 122/47/80 57/46/79 56/48/80
f 122/47/80 56/48/80 123/49/81
f 123/49/81 56/48/80 55/50/81
f 123/49/81 55/50/81 118/51/71
f 118/51/71 55/50/81 53/52/71
f 85/80/82 89/83/82 82/84/82
f 82/84/82 89/83/82 88/85/82
f 82/84/82 88/85/82 87/86/82
f 84/69/82 103/68/82 85/80/82
f 85/80/82 103/68/82 86/79/82
f 85/80/82 86/79/82 91/81/82
f 83/87/82 126/88/82 84/69/82
f 84/69/82 126/88/82 125/89/82
f 84/69/82 125/89/82 124/90/82
f 128/91/82 127/92/82 83/87/82
f 83/87/82 127/92/82 126/88/82
f 124/90/82 117/70/82 84/69/82
f 84/69/82 117/70/82 104/63/82
f 84/69/82 104/63/82 103/68/82
f 117/70/82 105/71/82 104/63/82
f 104/63/82 105/71/82 116/93/82
f 104/63/82 116/93/82 115/94/82
f 115/94/82 114/64/82 104/63/82
f 104/63/82 114/64/82 99/65/82
f 99/65/82 114/64/82 113/66/82
f 99/65/82 113/66/82 112/67/82
f 93/72/82 96/73/82 103/68/82
f 103/68/82 96/73/82 95/74/82
f 103/68/82 95/74/82 94/75/82
f 98/76/82 97/77/82 93/72/82
f 93/72/82 97/77/82 96/73/82
f 94/75/82 92/78/82 103/68/82
f 103/68/82 92/78/82 86/79/82
f 91/81/82 90/82/82 85/80/82
f 85/80/82 90/82/82 89/83/82
f 35/57/29 40/58/29 100/59/29
f 100/59/29 40/58/29 101/60/29
f 101/60/29 40/58/29 39/61/29
f 101/60/29 39/61/29 102/62/29
f 102/62/29 39/61/29 28/54/29
f 102/62/29 28/54/29 71/56/29
